<svg xmlns="http://www.w3.org/2000/svg" width="152" height="55" viewBox="0 0 152 55"><defs><style>.a{fill:none;}.b{fill:#ec6d23;}.c{fill:#22201f;}.d{fill:#121212;}.e{fill:#fff;}.f{fill:#3fb54f;}.g{fill:#fbdc2d;}</style></defs><title>Untitled-2</title><rect class="a" width="152" height="55"/><path class="b" d="M11.05,4.58a.88.88,0,0,1,0-.17c0-.86.8-1.8.83-2.76h0v0a.39.39,0,0,0-.24-.33,1.09,1.09,0,0,0-.42-.07,1.28,1.28,0,0,0-1.09.52,6.78,6.78,0,0,0-1,2.63,1.52,1.52,0,0,0,.24.86c.35.78.83,1.48,1.19,2.31a1,1,0,0,1,.1.42,1,1,0,0,1-.31.7c-.06.09-.47.07-.67.41v0a.51.51,0,0,0,0,.13.78.78,0,0,0,.57.68,1.51,1.51,0,0,0,.5.09,1.72,1.72,0,0,0,1.41-.82,2,2,0,0,0,.29-1c0-1.3-1.18-2.44-1.31-3.59"/><path class="b" d="M15.78,6.16a11.32,11.32,0,0,1-1.13-1.83,1.69,1.69,0,0,1-.24-.73,1,1,0,0,1,.41-.78.91.91,0,0,0,.26-.7,1.14,1.14,0,0,0-.37-.87A1.19,1.19,0,0,0,14,1c-.44,0-.72.35-.92.75a9.36,9.36,0,0,0-.53,1.44,2,2,0,0,0-.09.59c0,1.48,1.61,2.64,2,4a1.51,1.51,0,0,1,.06.41,3,3,0,0,1-.25,1,.89.89,0,0,0-.06.31.73.73,0,0,0,.77.69h0a.79.79,0,0,0,.58-.24,3,3,0,0,0,1-2,3.23,3.23,0,0,0-.8-1.82"/><path class="b" d="M2.72,6a1.89,1.89,0,0,1-.18-.9c0-.45.08-.93.08-1.39A2.12,2.12,0,0,0,2.51,3a.43.43,0,0,0-.42-.24,1.32,1.32,0,0,0-1.2.88,18.83,18.83,0,0,0-.24,2,2.06,2.06,0,0,0,.63,1.56A17.12,17.12,0,0,1,3.19,9a1.18,1.18,0,0,1,.27.65,1.21,1.21,0,0,1-.1.47,3.31,3.31,0,0,0-.47,1v0a.33.33,0,0,0,.28.31h0c.16,0,.28-.06.41-.06h.11a1.6,1.6,0,0,0,1.5-1.28,1.87,1.87,0,0,0,0-.4C5.23,8,3.31,7.26,2.72,6"/><path class="b" d="M7.54,5.72C6.93,4.71,6.09,3.79,6,2.8l0,0a6.24,6.24,0,0,1,.82-.26,2.38,2.38,0,0,0,.6-.27c.2-.12.4-.25.42-.51a.4.4,0,0,0-.18-.31,2,2,0,0,0-1-.28,2.63,2.63,0,0,0-2.5,1.77,2,2,0,0,0-.06.48c0,1.54,1.76,2.62,2.2,4h0a1.75,1.75,0,0,1,.09.49,3.62,3.62,0,0,1-.19,1,.57.57,0,0,0,0,.22.52.52,0,0,0,.24.44.94.94,0,0,0,.47.12,1.31,1.31,0,0,0,.89-.35,2.32,2.32,0,0,0,.5-1.45,4.22,4.22,0,0,0-.71-2.12"/><path class="c" d="M19.44,32.6h-.06"/><path class="d" d="M23.91,18.3a6,6,0,0,0-2.74-.6h0a12.63,12.63,0,0,0-3.67-5.41,11.22,11.22,0,0,0-7-2.22,16.62,16.62,0,0,0-4.08.56c-.1-.26-.2-.52-.32-.76a.25.25,0,0,0-.38-.08.59.59,0,0,0-.16.55,1.89,1.89,0,0,1,0,.53,17.76,17.76,0,0,0-2.27.84l-.38.18a.28.28,0,0,0-.16.33l.48,2c-.21.18-.42.38-.64.55s-.23.58-.06.63a4.42,4.42,0,0,0,1,.12l.5,2.1a.14.14,0,0,0,0,.06c-.06.14-.15.28-.19.39-.12.26.1.56.24.48l.16-.12.54,2.3a4.68,4.68,0,0,0-1,1,2.69,2.69,0,0,0-.49,1.59,2.1,2.1,0,0,0,.18.9s0,0,0,0a3.09,3.09,0,0,0-.19,1.09c0,.14,0,.29,0,.45a2.27,2.27,0,0,0,1.22,1.8,4.48,4.48,0,0,0,2,.52l2.23,9.4a.29.29,0,0,0,.16.2l.12,0a.35.35,0,0,0,.14,0l.59-.33a27.62,27.62,0,0,0,2.53-1.58,2,2,0,0,1,1.22-.38,5.41,5.41,0,0,1,1.35.25,9.26,9.26,0,0,0,2.28.38,4.76,4.76,0,0,0,1.12-.13,3.06,3.06,0,0,0,2.13-1.55,3.69,3.69,0,0,0,.41-1.74,3.81,3.81,0,0,0,0-.41,7.21,7.21,0,0,0-1-2.83l-.15-.3a6.7,6.7,0,0,1-.95-2.35v0a6.55,6.55,0,0,1,1.84-.63c.42-.11.83-.21,1.17-.32a2.09,2.09,0,0,0,.48-.22,1.09,1.09,0,0,0,.3-.23.91.91,0,0,0,.24-.62,14.94,14.94,0,0,0-.32-2.52,5.52,5.52,0,0,0,1.47-.47A2.07,2.07,0,0,0,25.19,20a2,2,0,0,0-1.28-1.7m-19.77,5a1.83,1.83,0,0,1,.31-1,5.1,5.1,0,0,1,.57-.6l.21.89a4.33,4.33,0,0,0-1.09.75"/><path class="e" d="M5.24,17.62c.17-.21.36-.45.56-.72l0-.06c.19-.25.41-.53.62-.53h0A3.19,3.19,0,0,1,8,17l.43.29a2.83,2.83,0,0,1,.28.2,1.52,1.52,0,0,0,.87.4h.13c.1,0,.15-.1.21-.22l.11-.16h0a.31.31,0,0,0-.06-.31l0,0c0-.1-.08-.18-.12-.26a3.71,3.71,0,0,0-.47-.8c-.25-.33-.49-.65-.72-1l-.4-.53a3.21,3.21,0,0,1,1-.47l.5-.18a.46.46,0,0,0,.19-.5.4.4,0,0,0-.18-.26h0a3.82,3.82,0,0,1-1.14-.29,3.21,3.21,0,0,0-.6-.06,1.84,1.84,0,0,1-.8-.12c-.12-.06-.17-.26-.2-.44a1,1,0,0,1,0-.14,2.29,2.29,0,0,0-.08-.28s0-.09,0-.13a15.29,15.29,0,0,1,3.66-.48,10.05,10.05,0,0,1,6.25,2,11.08,11.08,0,0,1,3.14,4.54,5.62,5.62,0,0,0-1.48.45,2.38,2.38,0,0,0-1.1,1l-.22,0a4.35,4.35,0,0,0-.59.07,3.59,3.59,0,0,0-3.62-2.5,3.51,3.51,0,0,0-3.66,2.77,10.13,10.13,0,0,0-3.38.63Z"/><path class="e" d="M4.06,12.65c.39-.17.79-.31,1.16-.44,0,.16-.1.31-.14.46a.52.52,0,0,1-.18.18l-.07.06v.16a4,4,0,0,1-.57.41Z"/><path class="e" d="M6.07,21.12a9.66,9.66,0,0,1,3.2-.61A3.63,3.63,0,0,0,12.88,23a3.56,3.56,0,0,0,3.66-2.71h0a2.6,2.6,0,0,1,.54-.08h0a2.11,2.11,0,0,0,1.29,1.63,6.34,6.34,0,0,0,2.76.55h.12a15.66,15.66,0,0,1,.31,2.23,8.59,8.59,0,0,1-1.18.36h0a7,7,0,0,0-2.47.94c-.81.72-.08,2.17.7,3.7a14,14,0,0,1,.87,1.94A7.37,7.37,0,0,1,15.7,30,15,15,0,0,1,13.15,27a.55.55,0,0,0-.47-.25.53.53,0,0,0-.32.1.58.58,0,0,0-.24.37.55.55,0,0,0,.09.43l0,.08A15.28,15.28,0,0,0,15,30.93a8.42,8.42,0,0,0,4.4,1.73l.31,0A2,2,0,0,1,18,34.82a3.62,3.62,0,0,1-.82.09,7.65,7.65,0,0,1-2-.32,6.93,6.93,0,0,0-1.77-.31,3.12,3.12,0,0,0-1.86.62c-.33.23-1.09.75-2,1.27Z"/><path class="e" d="M6.26,27.19A3.34,3.34,0,0,1,5,26.81a1.3,1.3,0,0,1-.75-1.08c0-.15,0-.27,0-.36a1.71,1.71,0,0,1,.43-1.26,2.93,2.93,0,0,1,.74-.58Z"/><path class="f" d="M21.17,21.39a5.34,5.34,0,0,1-2.32-.46q-.78-.39-.78-.93t.78-.93a4.74,4.74,0,0,1,1.46-.39,6.77,6.77,0,0,1,.85-.06h.29a5.19,5.19,0,0,1,2,.48c.59.31.79.66.78.89s-.19.58-.78.89a4.52,4.52,0,0,1-1.24.4,5.87,5.87,0,0,1-1.08.1Z"/><path class="f" d="M12.88,22a3.18,3.18,0,0,1-2-.65,1.8,1.8,0,0,1,0-2.94,3.12,3.12,0,0,1,2-.65,3.17,3.17,0,0,1,2,.65,1.8,1.8,0,0,1,0,2.94,3.13,3.13,0,0,1-2,.65"/><path class="g" d="M4.76,17.17a8.12,8.12,0,0,0,.18-.81c0-.1,0-.21,0-.32s0-.27.07-.41a1,1,0,0,1,.12-.28,1.47,1.47,0,0,0,.1-.22.48.48,0,0,0,0-.47h0A.38.38,0,0,0,5,14.58a.66.66,0,0,0-.36.12l-.09,0-.09,0a1.81,1.81,0,0,1-.51.08,1.65,1.65,0,0,1-.38-.05,1.05,1.05,0,0,1,.3-.22l.15-.08a3.9,3.9,0,0,0,.35-.19,2.48,2.48,0,0,0,.32-.23l.1-.05A.26.26,0,0,0,5,13.89l.11-.11a1.13,1.13,0,0,0,.3-.37,4.07,4.07,0,0,0,.44-1.24L5.89,12c0-.16.08-.33.14-.5a2.87,2.87,0,0,1,.16.39c.09.25.17.51.25.78s.19.65.32,1a.12.12,0,0,0,.12.08H7a0,0,0,0,1,0,0l0,.08.07,0a.74.74,0,0,1,.49-.15h.59a.32.32,0,0,1,.23.08l-.25.14a4.08,4.08,0,0,1-.71.33h0a.63.63,0,0,0-.21.36.43.43,0,0,0,.06.28.52.52,0,0,0,.19.2.48.48,0,0,1,.11.09A7.7,7.7,0,0,1,8.87,16.7h0s-.11-.06-.17-.13l0,0A5.44,5.44,0,0,0,7.8,16a5.22,5.22,0,0,1-.94-.64.36.36,0,0,0-.25-.1c-.22,0-.4.23-.6.47a3.28,3.28,0,0,1-.3.33,4.37,4.37,0,0,0-.6.69c-.05.05-.09.11-.14.17L4.91,17l-.15.17Z"/><path class="d" d="M55.51,22.19a7.33,7.33,0,1,0,7.64,7.36A7.49,7.49,0,0,0,55.51,22.19Zm0,10.15a2.83,2.83,0,1,1,2.79-2.82A2.79,2.79,0,0,1,55.51,32.34ZM73.8,16.89H65.49a.68.68,0,0,0-.7.67V35.72a.69.69,0,0,0,.7.7H73.8a9.39,9.39,0,0,0,9.82-9.83C83.62,20.76,79.55,16.89,73.8,16.89Zm-.11,14.92H69.81V21.49h3.88a4.83,4.83,0,0,1,4.69,5.1C78.38,29.33,76.48,31.81,73.69,31.81Zm25-9.2H95.2a.64.64,0,0,0-.64.64v.42A4.24,4.24,0,0,0,91,22.19a7,7,0,0,0-6.92,7.28A7,7,0,0,0,91,36.83a4.32,4.32,0,0,0,3.57-1.47v.41a.63.63,0,0,0,.64.65h3.49a.63.63,0,0,0,.64-.65V23.25A.63.63,0,0,0,98.69,22.61Zm-7,9.76a2.85,2.85,0,1,1,2.79-2.85A2.81,2.81,0,0,1,91.74,32.37Zm22.82-15.48H111a.64.64,0,0,0-.64.64v6a4.63,4.63,0,0,0-3.6-1.39A6.91,6.91,0,0,0,100,29.47a7,7,0,0,0,6.89,7.36,4.47,4.47,0,0,0,3.57-1.47v.41a.63.63,0,0,0,.64.65h3.49a.63.63,0,0,0,.64-.65V17.53A.63.63,0,0,0,114.56,16.89Zm-7,15.48a2.85,2.85,0,1,1,2.79-2.85A2.81,2.81,0,0,1,107.61,32.37Zm22.83-15.48h-3.55a.64.64,0,0,0-.64.64v6a4.61,4.61,0,0,0-3.6-1.39,6.91,6.91,0,0,0-6.81,7.28,7,7,0,0,0,6.9,7.36,4.48,4.48,0,0,0,3.57-1.47v.41a.63.63,0,0,0,.64.65h3.49a.63.63,0,0,0,.64-.65V17.53A.63.63,0,0,0,130.44,16.89Zm-7,15.48a2.85,2.85,0,1,1,2.79-2.85A2.81,2.81,0,0,1,123.49,32.37ZM147,23.11a2.06,2.06,0,0,1-.11.58l-4.1,14.73A5.87,5.87,0,0,1,136.66,43a7,7,0,0,1-4.49-1.53.9.9,0,0,1-.28-.59,1.11,1.11,0,0,1,.22-.59l1.31-2A.75.75,0,0,1,134,38a1.07,1.07,0,0,1,.73.28,2.94,2.94,0,0,0,1.61.61,1.49,1.49,0,0,0,1.51-1.06l.45-1.39h-2.12a.87.87,0,0,1-.84-.67l-3.54-12.06a2.21,2.21,0,0,1-.12-.58c0-.28.2-.5.59-.5h4.18a.75.75,0,0,1,.67.66l2.32,8.65h.17l1.87-8.65a.75.75,0,0,1,.67-.66h4.24C146.76,22.61,147,22.83,147,23.11ZM47.2,26.93v8.79a.7.7,0,0,1-.7.7H43.6a.7.7,0,0,1-.7-.7v-2A8.3,8.3,0,0,1,36,36.83c-5.66,0-9.85-4.26-9.85-10.18A10.19,10.19,0,0,1,36.57,16.47c4.38,0,7.89,1.87,9.48,5.44.2.42.34,1.09-.84,1.31l-3.09.56a1.22,1.22,0,0,1-1.26-.53,5.12,5.12,0,0,0-4.18-2.12,5.25,5.25,0,0,0-5.3,5.55,5.35,5.35,0,0,0,9.51,3.57H38.16a.7.7,0,0,1-.7-.7V26.93a.7.7,0,0,1,.7-.7H46.5A.7.7,0,0,1,47.2,26.93Zm101.54-7.82a.08.08,0,0,1,.07.08v.26a.07.07,0,0,1-.07.07h-.62v1.69a.08.08,0,0,1-.07.07h-.32a.07.07,0,0,1-.07-.07V19.52H147s-.06,0-.06-.07v-.26s0-.08.06-.08Zm2.61.07v2s0,.07-.06.07H151a.07.07,0,0,1-.07-.07V19.68l-.5,1.11a.09.09,0,0,1-.1.07h-.25s-.07,0-.09-.07l-.5-1.11v1.53a.07.07,0,0,1-.07.07h-.31a.07.07,0,0,1-.06-.07v-2a.08.08,0,0,1,.07-.07h.52a.1.1,0,0,1,.1.07l.47,1.08.48-1.08a.13.13,0,0,1,.1-.07h.51A.07.07,0,0,1,151.35,19.18Z"/></svg>