  <svg viewBox="0 0 145 130" xmlns="http://www.w3.org/2000/svg">
                                                                <path d="M140 65c0 35.6-28.9 64.5-64.5 64.5S11 100.6 11 65 39.9.5 75.5.5 140 29.4 140 65" fill="#1d4354"></path>
                                                                <path
                                                                    d="M75.7 129.5c25.3-.1 47.1-14.7 57.7-35.9l-115.5.3c10.6 21.1 32.5 35.6 57.8 35.6M56.6 61.1L23.3 87c-.5.4-1.3.3-1.7-.2L5.2 65.7c-.4-.5-.3-1.3.2-1.7l33.2-25.9c.5-.4 1.3-.3 1.7.2l16.4 21.1c.5.5.4 1.3-.1 1.7z"
                                                                    fill="#33637a"
                                                                ></path>
                                                                <ellipse cx="32" cy="62.6" fill="#1d4354" rx="3.9" ry="3.9" transform="rotate(-87.625 32.024 62.581) scale(.99996)"></ellipse>
                                                                <path d="M49 95.8v12.6c0 .6.5 1.1 1.1 1.1h64.4c.6 0 1.1-.5 1.1-1.1V22.9c0-.6-.5-1.1-1.1-1.1H50.1c-.6 0-1.1.5-1.1 1.1v45.5" fill="#6fda44"></path>
                                                                <path
                                                                    d="M62.7 43.7c-1.4-.2-2.5-.7-3.5-1.5l1.1-1.8c.8.6 1.7 1.1 2.4 1.3v-2.5c-2.1-.6-2.8-1.5-2.8-3.3 0-1.7 1.4-2.8 2.8-3v-1h2.1v1c.7.2 1.9.6 2.7 1.1l-.9 2c-.6-.4-1.8-.7-1.8-.9v2.3c2.1.6 2.8 1.6 2.8 3.3 0 1.7-1.4 2.8-2.8 3v1.5h-2.1v-1.5zm0-8.8c-.7.1-.7.5-.7 1s0 .8.7 1.1v-2.1zm2.8 6c0-.6 0-.9-.7-1.2v2.2c.7-.2.7-.5.7-1z"
                                                                    fill="#34ba08"
                                                                ></path>
                                                                <g fill="#fff">
                                                                    <path
                                                                        d="M78 36.6v5.1h-1.2v-5.1H78zM83.5 41.7h-1.2l-2.1-3.1v3.1H79v-5.1h1.2l2.1 3.2v-3.2h1.2v5.1zM85.3 36.6l1.3 3.9 1.3-3.9h1.3l-1.8 5.1h-1.6L84 36.6h1.3zM93.3 36.8c.4.2.7.5.9.9.2.4.3.8.3 1.4s-.1 1-.3 1.4-.5.7-.9.9c-.4.2-.8.3-1.3.3s-.9-.1-1.3-.3c-.4-.2-.7-.5-.9-.9s-.3-.9-.3-1.4.1-1 .3-1.4.5-.7.9-.9.8-.3 1.3-.3.9.1 1.3.3zM91 38.1c-.2.3-.4.6-.4 1.1 0 .4.1.8.4 1.1.2.3.6.4 1 .4s.7-.1 1-.4c.2-.3.4-.6.4-1.1 0-.4-.1-.8-.4-1.1-.2-.3-.6-.4-1-.4s-.7.1-1 .4zM96.5 36.6v5.1h-1.2v-5.1h1.2zM101.3 37.1c.4.3.7.8.8 1.4h-1.3c-.1-.2-.2-.4-.4-.6-.2-.1-.4-.2-.7-.2-.4 0-.7.1-.9.4s-.3.6-.3 1.1c0 .4.1.8.3 1.1s.5.4.9.4c.3 0 .5-.1.7-.2.2-.1.3-.3.4-.6h1.3c-.1.6-.4 1-.8 1.4s-1 .5-1.6.5c-.5 0-.9-.1-1.3-.3-.4-.2-.7-.5-.9-.9-.2-.4-.3-.8-.3-1.4 0-.5.1-1 .3-1.4.2-.4.5-.7.9-.9.4-.2.8-.3 1.3-.3.7-.1 1.2.1 1.6.5zM104.1 37.6v1.1h1.7v.9h-1.7v1.1h2v1h-3.2v-5.1h3.2v1h-2z"
                                                                    ></path>
                                                                </g>
                                                                <g fill="#34ba08">
                                                                    <path
                                                                        d="M105.8 62.2H59.9c-.6 0-1-.4-1-1s.4-1 1-1h45.9c.6 0 1 .4 1 1s-.5 1-1 1zM105.8 68.6H59.9c-.6 0-1-.4-1-1s.4-1 1-1h45.9c.6 0 1 .4 1 1s-.5 1-1 1zM105.8 75.1H59.9c-.6 0-1-.4-1-1s.4-1 1-1h45.9c.6 0 1 .4 1 1s-.5 1-1 1zM105.8 81.5H59.9c-.6 0-1-.4-1-1s.4-1 1-1h45.9c.6 0 1 .4 1 1s-.5 1-1 1zM105.8 88H86.5c-.6 0-1-.4-1-1s.4-1 1-1h19.3c.6 0 1 .4 1 1s-.5 1-1 1zM105.3 55.7H59.9c-.6 0-1-.4-1-1s.4-1 1-1h45.5c.6 0 1 .4 1 1s-.5 1-1.1 1z"
                                                                    ></path>
                                                                    <path d="M95.7 74.7c-.6 0-1-.4-1-1V55.1c0-.6.4-1 1-1s1 .4 1 1v18.5c0 .6-.5 1.1-1 1.1z"></path>
                                                                </g>
                                                                <g>
                                                                    <path d="M70.9 93.4l-41.7 6c-.7.1-1.3-.4-1.4-1L24 71.9c-.1-.7.4-1.3 1-1.4l41.7-6c.7-.1 1.3.4 1.4 1L71.9 92c.1.7-.3 1.3-1 1.4z" fill="#fff"></path>
                                                                    <path d="M69.6 76.1l-44.7 6.5-.9-6.3 44.7-6.6z" fill="#1d4354"></path>
                                                                    <path
                                                                        d="M38.2 92.7c-.4 0-.7-.3-.7-.6-.1-.4.2-.8.6-.8l22-3.3c.4-.1.8.2.8.6.1.4-.2.8-.6.8l-22.1 3.2v.1zM58.4 84.3c-.4 0-.7-.3-.7-.6-.1-.4.2-.8.6-.8l6.3-.9c.4-.1.8.2.8.6.1.4-.2.8-.6.8l-6.3.9h-.1z"
                                                                        fill="#c4c4c4"
                                                                    ></path>
                                                                </g>
                                                            </svg>